<svg width="1440" height="1010" viewBox="0 0 1440 1010" fill="none" xmlns="http://www.w3.org/2000/svg">
<g clip-path="url(#clip0_1408_4263)">
<rect width="1440" height="1010" fill="#F2F8FD"/>
<rect x="0.5" y="0.5" width="125" height="125" stroke="#EAF3FB"/>
<rect x="126.5" y="0.5" width="125" height="125" stroke="#EAF3FB"/>
<rect x="252.5" y="0.5" width="125" height="125" stroke="#EAF3FB"/>
<rect x="378.5" y="0.5" width="125" height="125" fill="#EAF3FB"/>
<rect x="378.5" y="0.5" width="125" height="125" stroke="#EAF3FB"/>
<rect x="504.5" y="0.5" width="125" height="125" stroke="#EAF3FB"/>
<rect x="630.5" y="0.5" width="125" height="125" stroke="#EAF3FB"/>
<rect x="756.5" y="0.5" width="125" height="125" stroke="#EAF3FB"/>
<rect x="882.5" y="0.5" width="125" height="125" stroke="#EAF3FB"/>
<rect x="1008.5" y="0.5" width="125" height="125" stroke="#EAF3FB"/>
<rect x="1134.5" y="0.5" width="125" height="125" stroke="#EAF3FB"/>
<rect x="1260.5" y="0.5" width="125" height="125" fill="#EAF3FB"/>
<rect x="1260.5" y="0.5" width="125" height="125" stroke="#EAF3FB"/>
<rect x="1386.5" y="0.5" width="125" height="125" stroke="#EAF3FB"/>
<rect x="0.5" y="126.5" width="125" height="125" stroke="#EAF3FB"/>
<rect x="126.5" y="126.5" width="125" height="125" stroke="#EAF3FB"/>
<rect x="252.5" y="126.5" width="125" height="125" stroke="#EAF3FB"/>
<rect x="378.5" y="126.5" width="125" height="125" stroke="#EAF3FB"/>
<rect x="504.5" y="126.5" width="125" height="125" stroke="#EAF3FB"/>
<rect x="630.5" y="126.5" width="125" height="125" stroke="#EAF3FB"/>
<rect x="756.5" y="126.5" width="125" height="125" stroke="#EAF3FB"/>
<rect x="882.5" y="126.5" width="125" height="125" stroke="#EAF3FB"/>
<rect x="1008.5" y="126.5" width="125" height="125" stroke="#EAF3FB"/>
<rect x="1134.5" y="126.5" width="125" height="125" stroke="#EAF3FB"/>
<rect x="1260.5" y="126.5" width="125" height="125" stroke="#EAF3FB"/>
<rect x="1386.5" y="126.5" width="125" height="125" stroke="#EAF3FB"/>
<rect x="0.5" y="252.5" width="125" height="125" fill="#EAF3FB"/>
<rect x="0.5" y="252.5" width="125" height="125" stroke="#EAF3FB"/>
<rect x="126.5" y="252.5" width="125" height="125" stroke="#EAF3FB"/>
<rect x="252.5" y="252.5" width="125" height="125" stroke="#EAF3FB"/>
<rect x="378.5" y="252.5" width="125" height="125" stroke="#EAF3FB"/>
<rect x="504.5" y="252.5" width="125" height="125" stroke="#EAF3FB"/>
<rect x="630.5" y="252.5" width="125" height="125" stroke="#EAF3FB"/>
<rect x="756.5" y="252.5" width="125" height="125" fill="#EAF3FB"/>
<rect x="756.5" y="252.5" width="125" height="125" stroke="#EAF3FB"/>
<rect x="882.5" y="252.5" width="125" height="125" stroke="#EAF3FB"/>
<rect x="1008.5" y="252.5" width="125" height="125" stroke="#EAF3FB"/>
<rect x="1134.5" y="252.5" width="125" height="125" stroke="#EAF3FB"/>
<rect x="1260.5" y="252.5" width="125" height="125" stroke="#EAF3FB"/>
<rect x="1386.5" y="252.5" width="125" height="125" stroke="#EAF3FB"/>
<rect x="0.5" y="378.5" width="125" height="125" stroke="#EAF3FB"/>
<rect x="126.5" y="378.5" width="125" height="125" stroke="#EAF3FB"/>
<rect x="252.5" y="378.5" width="125" height="125" stroke="#EAF3FB"/>
<rect x="378.5" y="378.5" width="125" height="125" stroke="#EAF3FB"/>
<rect x="504.5" y="378.5" width="125" height="125" stroke="#EAF3FB"/>
<rect x="630.5" y="378.5" width="125" height="125" stroke="#EAF3FB"/>
<rect x="756.5" y="378.5" width="125" height="125" stroke="#EAF3FB"/>
<rect x="882.5" y="378.5" width="125" height="125" stroke="#EAF3FB"/>
<rect x="1008.5" y="378.5" width="125" height="125" stroke="#EAF3FB"/>
<rect x="1134.5" y="378.5" width="125" height="125" stroke="#EAF3FB"/>
<rect x="1260.5" y="378.5" width="125" height="125" stroke="#EAF3FB"/>
<rect x="1386.5" y="378.5" width="125" height="125" stroke="#EAF3FB"/>
<rect x="0.5" y="504.5" width="125" height="125" stroke="#EAF3FB"/>
<rect x="126.5" y="504.5" width="125" height="125" stroke="#EAF3FB"/>
<rect x="252.5" y="504.5" width="125" height="125" fill="#EAF3FB"/>
<rect x="252.5" y="504.5" width="125" height="125" stroke="#EAF3FB"/>
<rect x="378.5" y="504.5" width="125" height="125" stroke="#EAF3FB"/>
<rect x="504.5" y="504.5" width="125" height="125" stroke="#EAF3FB"/>
<rect x="630.5" y="504.5" width="125" height="125" stroke="#EAF3FB"/>
<rect x="756.5" y="504.5" width="125" height="125" stroke="#EAF3FB"/>
<rect x="882.5" y="504.5" width="125" height="125" stroke="#EAF3FB"/>
<rect x="1008.5" y="504.5" width="125" height="125" stroke="#EAF3FB"/>
<rect x="1134.5" y="504.5" width="125" height="125" stroke="#EAF3FB"/>
<rect x="1260.5" y="504.5" width="125" height="125" stroke="#EAF3FB"/>
<rect x="1386.5" y="504.5" width="125" height="125" stroke="#EAF3FB"/>
<rect x="0.5" y="630.5" width="125" height="125" fill="#EAF3FB"/>
<rect x="0.5" y="630.5" width="125" height="125" stroke="#EAF3FB"/>
<rect x="126.5" y="630.5" width="125" height="125" stroke="#EAF3FB"/>
<rect x="252.5" y="630.5" width="125" height="125" stroke="#EAF3FB"/>
<rect x="378.5" y="630.5" width="125" height="125" stroke="#EAF3FB"/>
<rect x="504.5" y="630.5" width="125" height="125" stroke="#EAF3FB"/>
<rect x="630.5" y="630.5" width="125" height="125" stroke="#EAF3FB"/>
<rect x="756.5" y="630.5" width="125" height="125" fill="#EAF3FB"/>
<rect x="756.5" y="630.5" width="125" height="125" stroke="#EAF3FB"/>
<rect x="882.5" y="630.5" width="125" height="125" stroke="#EAF3FB"/>
<rect x="1008.5" y="630.5" width="125" height="125" stroke="#EAF3FB"/>
<rect x="1134.5" y="630.5" width="125" height="125" stroke="#EAF3FB"/>
<rect x="1260.5" y="630.5" width="125" height="125" stroke="#EAF3FB"/>
<rect x="1386.5" y="630.5" width="125" height="125" stroke="#EAF3FB"/>
<rect x="0.5" y="756.5" width="125" height="125" fill="#EAF3FB"/>
<rect x="0.5" y="756.5" width="125" height="125" stroke="#EAF3FB"/>
<rect x="126.5" y="756.5" width="125" height="125" stroke="#EAF3FB"/>
<rect x="252.5" y="756.5" width="125" height="125" stroke="#EAF3FB"/>
<rect x="378.5" y="756.5" width="125" height="125" stroke="#EAF3FB"/>
<rect x="504.5" y="756.5" width="125" height="125" stroke="#EAF3FB"/>
<rect x="630.5" y="756.5" width="125" height="125" stroke="#EAF3FB"/>
<rect x="756.5" y="756.5" width="125" height="125" fill="#EAF3FB"/>
<rect x="756.5" y="756.5" width="125" height="125" stroke="#EAF3FB"/>
<rect x="882.5" y="756.5" width="125" height="125" stroke="#EAF3FB"/>
<rect x="1008.5" y="756.5" width="125" height="125" stroke="#EAF3FB"/>
<rect x="1134.5" y="756.5" width="125" height="125" stroke="#EAF3FB"/>
<rect x="1260.5" y="756.5" width="125" height="125" stroke="#EAF3FB"/>
<rect x="1386.5" y="756.5" width="125" height="125" stroke="#EAF3FB"/>
<rect x="0.5" y="882.5" width="125" height="125" stroke="#EAF3FB"/>
<rect x="126.5" y="882.5" width="125" height="125" stroke="#EAF3FB"/>
<rect x="252.5" y="882.5" width="125" height="125" fill="#EAF3FB"/>
<rect x="252.5" y="882.5" width="125" height="125" stroke="#EAF3FB"/>
<rect x="378.5" y="882.5" width="125" height="125" stroke="#EAF3FB"/>
<rect x="504.5" y="882.5" width="125" height="125" stroke="#EAF3FB"/>
<rect x="630.5" y="882.5" width="125" height="125" stroke="#EAF3FB"/>
<rect x="756.5" y="882.5" width="125" height="125" stroke="#EAF3FB"/>
<rect x="882.5" y="882.5" width="125" height="125" stroke="#EAF3FB"/>
<rect x="1008.5" y="882.5" width="125" height="125" stroke="#EAF3FB"/>
<rect x="1134.5" y="882.5" width="125" height="125" stroke="#EAF3FB"/>
<rect x="1260.5" y="882.5" width="125" height="125" stroke="#EAF3FB"/>
<rect x="1386.5" y="882.5" width="125" height="125" stroke="#EAF3FB"/>
<rect x="0.5" y="1008.5" width="125" height="125" fill="#EAF3FB"/>
<rect x="0.5" y="1008.5" width="125" height="125" stroke="#EAF3FB"/>
<rect x="126.5" y="1008.5" width="125" height="125" stroke="#EAF3FB"/>
<rect x="252.5" y="1008.5" width="125" height="125" stroke="#EAF3FB"/>
<rect x="378.5" y="1008.5" width="125" height="125" stroke="#EAF3FB"/>
<rect x="504.5" y="1008.5" width="125" height="125" stroke="#EAF3FB"/>
<rect x="630.5" y="1008.5" width="125" height="125" stroke="#EAF3FB"/>
<rect x="756.5" y="1008.5" width="125" height="125" fill="#EAF3FB"/>
<rect x="756.5" y="1008.5" width="125" height="125" stroke="#EAF3FB"/>
<rect x="882.5" y="1008.5" width="125" height="125" stroke="#EAF3FB"/>
<rect x="1008.5" y="1008.5" width="125" height="125" stroke="#EAF3FB"/>
<rect x="1134.5" y="1008.5" width="125" height="125" stroke="#EAF3FB"/>
<rect x="1260.5" y="1008.5" width="125" height="125" stroke="#EAF3FB"/>
<rect x="1386.5" y="1008.5" width="125" height="125" stroke="#EAF3FB"/>
</g>
<defs>
<clipPath id="clip0_1408_4263">
<rect width="1440" height="1010" fill="white"/>
</clipPath>
</defs>
</svg>
