<svg width="1440" height="1063" viewBox="0 0 1440 1063" fill="none" xmlns="http://www.w3.org/2000/svg">
<g clip-path="url(#clip0_1168_2653)">
<rect width="1440" height="1063" fill="url(#paint0_linear_1168_2653)"/>
<rect x="0.5" y="0.5" width="125" height="125" stroke="#356996" stroke-opacity="0.4"/>
<rect x="126.5" y="0.5" width="125" height="125" stroke="#356996" stroke-opacity="0.4"/>
<rect x="252.5" y="0.5" width="125" height="125" stroke="#356996" stroke-opacity="0.4"/>
<rect x="378" width="126" height="126" fill="#4590D0" fill-opacity="0.6"/>
<rect x="378.5" y="0.5" width="125" height="125" stroke="#356996" stroke-opacity="0.4"/>
<rect x="504.5" y="0.5" width="125" height="125" stroke="#356996" stroke-opacity="0.4"/>
<rect x="630.5" y="0.5" width="125" height="125" stroke="#356996" stroke-opacity="0.4"/>
<rect x="756.5" y="0.5" width="125" height="125" stroke="#356996" stroke-opacity="0.4"/>
<rect x="882.5" y="0.5" width="125" height="125" stroke="#356996" stroke-opacity="0.4"/>
<rect x="1008.5" y="0.5" width="125" height="125" stroke="#356996" stroke-opacity="0.4"/>
<rect x="1134.5" y="0.5" width="125" height="125" stroke="#356996" stroke-opacity="0.4"/>
<rect x="1260" width="126" height="126" fill="#4590D0" fill-opacity="0.6"/>
<rect x="1260.5" y="0.5" width="125" height="125" stroke="#356996" stroke-opacity="0.4"/>
<rect x="1386.5" y="0.5" width="125" height="125" stroke="#356996" stroke-opacity="0.4"/>
<rect x="0.5" y="126.5" width="125" height="125" stroke="#356996" stroke-opacity="0.4"/>
<rect x="126.5" y="126.5" width="125" height="125" stroke="#356996" stroke-opacity="0.4"/>
<rect x="252.5" y="126.5" width="125" height="125" stroke="#356996" stroke-opacity="0.4"/>
<rect x="378.5" y="126.5" width="125" height="125" stroke="#356996" stroke-opacity="0.4"/>
<rect x="504.5" y="126.5" width="125" height="125" stroke="#356996" stroke-opacity="0.4"/>
<rect x="630.5" y="126.5" width="125" height="125" stroke="#356996" stroke-opacity="0.4"/>
<rect x="756.5" y="126.5" width="125" height="125" stroke="#356996" stroke-opacity="0.4"/>
<rect x="882.5" y="126.5" width="125" height="125" stroke="#356996" stroke-opacity="0.4"/>
<rect x="1008.5" y="126.5" width="125" height="125" stroke="#356996" stroke-opacity="0.4"/>
<rect x="1134.5" y="126.5" width="125" height="125" stroke="#356996" stroke-opacity="0.4"/>
<rect x="1260.5" y="126.5" width="125" height="125" stroke="#356996" stroke-opacity="0.4"/>
<rect x="1386.5" y="126.5" width="125" height="125" stroke="#356996" stroke-opacity="0.4"/>
<rect y="252" width="126" height="126" fill="#4590D0" fill-opacity="0.6"/>
<rect x="0.5" y="252.5" width="125" height="125" stroke="#356996" stroke-opacity="0.4"/>
<rect x="126.5" y="252.5" width="125" height="125" stroke="#356996" stroke-opacity="0.4"/>
<rect x="252.5" y="252.5" width="125" height="125" stroke="#356996" stroke-opacity="0.4"/>
<rect x="378.5" y="252.5" width="125" height="125" stroke="#356996" stroke-opacity="0.4"/>
<rect x="504.5" y="252.5" width="125" height="125" stroke="#356996" stroke-opacity="0.4"/>
<rect x="630.5" y="252.5" width="125" height="125" stroke="#356996" stroke-opacity="0.4"/>
<rect x="756" y="252" width="126" height="126" fill="#4590D0" fill-opacity="0.6"/>
<rect x="756.5" y="252.5" width="125" height="125" stroke="#356996" stroke-opacity="0.4"/>
<rect x="882.5" y="252.5" width="125" height="125" stroke="#356996" stroke-opacity="0.4"/>
<rect x="1008.5" y="252.5" width="125" height="125" stroke="#356996" stroke-opacity="0.4"/>
<rect x="1134.5" y="252.5" width="125" height="125" stroke="#356996" stroke-opacity="0.4"/>
<rect x="1260.5" y="252.5" width="125" height="125" stroke="#356996" stroke-opacity="0.4"/>
<rect x="1386.5" y="252.5" width="125" height="125" stroke="#356996" stroke-opacity="0.4"/>
<rect x="0.5" y="378.5" width="125" height="125" stroke="#356996" stroke-opacity="0.4"/>
<rect x="126.5" y="378.5" width="125" height="125" stroke="#356996" stroke-opacity="0.4"/>
<rect x="252.5" y="378.5" width="125" height="125" stroke="#356996" stroke-opacity="0.4"/>
<rect x="378.5" y="378.5" width="125" height="125" stroke="#356996" stroke-opacity="0.4"/>
<rect x="504.5" y="378.5" width="125" height="125" stroke="#356996" stroke-opacity="0.4"/>
<rect x="630.5" y="378.5" width="125" height="125" stroke="#356996" stroke-opacity="0.4"/>
<rect x="756.5" y="378.5" width="125" height="125" stroke="#356996" stroke-opacity="0.4"/>
<rect x="882.5" y="378.5" width="125" height="125" stroke="#356996" stroke-opacity="0.4"/>
<rect x="1008.5" y="378.5" width="125" height="125" stroke="#356996" stroke-opacity="0.4"/>
<rect x="1134.5" y="378.5" width="125" height="125" stroke="#356996" stroke-opacity="0.4"/>
<rect x="1260.5" y="378.5" width="125" height="125" stroke="#356996" stroke-opacity="0.4"/>
<rect x="1386.5" y="378.5" width="125" height="125" stroke="#356996" stroke-opacity="0.4"/>
<rect x="0.5" y="504.5" width="125" height="125" stroke="#356996" stroke-opacity="0.4"/>
<rect x="126.5" y="504.5" width="125" height="125" stroke="#356996" stroke-opacity="0.4"/>
<rect x="252" y="504" width="126" height="126" fill="#4590D0" fill-opacity="0.6"/>
<rect x="252.5" y="504.5" width="125" height="125" stroke="#356996" stroke-opacity="0.4"/>
<rect x="378.5" y="504.5" width="125" height="125" stroke="#356996" stroke-opacity="0.4"/>
<rect x="504.5" y="504.5" width="125" height="125" stroke="#356996" stroke-opacity="0.4"/>
<rect x="630.5" y="504.5" width="125" height="125" stroke="#356996" stroke-opacity="0.4"/>
<rect x="756.5" y="504.5" width="125" height="125" stroke="#356996" stroke-opacity="0.4"/>
<rect x="882.5" y="504.5" width="125" height="125" stroke="#356996" stroke-opacity="0.4"/>
<rect x="1008.5" y="504.5" width="125" height="125" stroke="#356996" stroke-opacity="0.4"/>
<rect x="1134.5" y="504.5" width="125" height="125" stroke="#356996" stroke-opacity="0.4"/>
<rect x="1260.5" y="504.5" width="125" height="125" stroke="#356996" stroke-opacity="0.4"/>
<rect x="1386.5" y="504.5" width="125" height="125" stroke="#356996" stroke-opacity="0.4"/>
<rect x="0.5" y="630.5" width="125" height="125" stroke="#356996" stroke-opacity="0.4"/>
<rect x="126.5" y="630.5" width="125" height="125" stroke="#356996" stroke-opacity="0.4"/>
<rect x="252" y="630" width="126" height="126" fill="#4590D0" fill-opacity="0.6"/>
<rect x="252.5" y="630.5" width="125" height="125" stroke="#356996" stroke-opacity="0.4"/>
<rect x="378.5" y="630.5" width="125" height="125" stroke="#356996" stroke-opacity="0.4"/>
<rect x="504.5" y="630.5" width="125" height="125" stroke="#356996" stroke-opacity="0.4"/>
<rect x="630.5" y="630.5" width="125" height="125" stroke="#356996" stroke-opacity="0.4"/>
<rect x="756.5" y="630.5" width="125" height="125" stroke="#356996" stroke-opacity="0.4"/>
<rect x="882.5" y="630.5" width="125" height="125" stroke="#356996" stroke-opacity="0.4"/>
<rect x="1008.5" y="630.5" width="125" height="125" stroke="#356996" stroke-opacity="0.4"/>
<rect x="1134" y="630" width="126" height="126" fill="#4590D0" fill-opacity="0.6"/>
<rect x="1134.5" y="630.5" width="125" height="125" stroke="#356996" stroke-opacity="0.4"/>
<rect x="1260.5" y="630.5" width="125" height="125" stroke="#356996" stroke-opacity="0.4"/>
<rect x="1386.5" y="630.5" width="125" height="125" stroke="#356996" stroke-opacity="0.4"/>
<rect x="0.5" y="756.5" width="125" height="125" stroke="#356996" stroke-opacity="0.4"/>
<rect x="126.5" y="756.5" width="125" height="125" stroke="#356996" stroke-opacity="0.4"/>
<rect x="252.5" y="756.5" width="125" height="125" stroke="#356996" stroke-opacity="0.4"/>
<rect x="378.5" y="756.5" width="125" height="125" stroke="#356996" stroke-opacity="0.4"/>
<rect x="504.5" y="756.5" width="125" height="125" stroke="#356996" stroke-opacity="0.4"/>
<rect x="630" y="756" width="126" height="126" fill="#4590D0" fill-opacity="0.6"/>
<rect x="630.5" y="756.5" width="125" height="125" stroke="#356996" stroke-opacity="0.4"/>
<rect x="756.5" y="756.5" width="125" height="125" stroke="#356996" stroke-opacity="0.4"/>
<rect x="882.5" y="756.5" width="125" height="125" stroke="#356996" stroke-opacity="0.4"/>
<rect x="1008.5" y="756.5" width="125" height="125" stroke="#356996" stroke-opacity="0.4"/>
<rect x="1134.5" y="756.5" width="125" height="125" stroke="#356996" stroke-opacity="0.4"/>
<rect x="1260.5" y="756.5" width="125" height="125" stroke="#356996" stroke-opacity="0.4"/>
<rect x="1386.5" y="756.5" width="125" height="125" stroke="#356996" stroke-opacity="0.4"/>
<rect x="0.5" y="882.5" width="125" height="125" stroke="#356996" stroke-opacity="0.4"/>
<rect x="126.5" y="882.5" width="125" height="125" stroke="#356996" stroke-opacity="0.4"/>
<rect x="252.5" y="882.5" width="125" height="125" stroke="#356996" stroke-opacity="0.4"/>
<rect x="378.5" y="882.5" width="125" height="125" stroke="#356996" stroke-opacity="0.4"/>
<rect x="504.5" y="882.5" width="125" height="125" stroke="#356996" stroke-opacity="0.4"/>
<rect x="630.5" y="882.5" width="125" height="125" stroke="#356996" stroke-opacity="0.4"/>
<rect x="756.5" y="882.5" width="125" height="125" stroke="#356996" stroke-opacity="0.4"/>
<rect x="882.5" y="882.5" width="125" height="125" stroke="#356996" stroke-opacity="0.4"/>
<rect x="1008.5" y="882.5" width="125" height="125" stroke="#356996" stroke-opacity="0.4"/>
<rect x="1134.5" y="882.5" width="125" height="125" stroke="#356996" stroke-opacity="0.4"/>
<rect x="1260.5" y="882.5" width="125" height="125" stroke="#356996" stroke-opacity="0.4"/>
<rect x="1386.5" y="882.5" width="125" height="125" stroke="#356996" stroke-opacity="0.4"/>
<rect x="0.5" y="1008.5" width="125" height="125" stroke="#356996" stroke-opacity="0.4"/>
<rect x="126.5" y="1008.5" width="125" height="125" stroke="#356996" stroke-opacity="0.4"/>
<rect x="252" y="1008" width="126" height="126" fill="#4590D0" fill-opacity="0.6"/>
<rect x="252.5" y="1008.5" width="125" height="125" stroke="#356996" stroke-opacity="0.4"/>
<rect x="378.5" y="1008.5" width="125" height="125" stroke="#356996" stroke-opacity="0.4"/>
<rect x="504.5" y="1008.5" width="125" height="125" stroke="#356996" stroke-opacity="0.4"/>
<rect x="630.5" y="1008.5" width="125" height="125" stroke="#356996" stroke-opacity="0.4"/>
<rect x="756.5" y="1008.5" width="125" height="125" stroke="#356996" stroke-opacity="0.4"/>
<rect x="882.5" y="1008.5" width="125" height="125" stroke="#356996" stroke-opacity="0.4"/>
<rect x="1008.5" y="1008.5" width="125" height="125" stroke="#356996" stroke-opacity="0.4"/>
<rect x="1134" y="1008" width="126" height="126" fill="#4590D0" fill-opacity="0.6"/>
<rect x="1134.5" y="1008.5" width="125" height="125" stroke="#356996" stroke-opacity="0.4"/>
<rect x="1260.5" y="1008.5" width="125" height="125" stroke="#356996" stroke-opacity="0.4"/>
<rect x="1386.5" y="1008.5" width="125" height="125" stroke="#356996" stroke-opacity="0.4"/>
<g filter="url(#filter0_f_1168_2653)">
<circle cx="156" cy="156" r="156" fill="#141B58"/>
</g>
</g>
<defs>
<filter id="filter0_f_1168_2653" x="-500" y="-500" width="1312" height="1312" filterUnits="userSpaceOnUse" color-interpolation-filters="sRGB">
<feFlood flood-opacity="0" result="BackgroundImageFix"/>
<feBlend mode="normal" in="SourceGraphic" in2="BackgroundImageFix" result="shape"/>
<feGaussianBlur stdDeviation="250" result="effect1_foregroundBlur_1168_2653"/>
</filter>
<linearGradient id="paint0_linear_1168_2653" x1="-351.5" y1="-270.619" x2="1507.12" y2="1008.83" gradientUnits="userSpaceOnUse">
<stop offset="0.291865" stop-color="#3498DB"/>
<stop offset="1" stop-color="#00114B"/>
</linearGradient>
<clipPath id="clip0_1168_2653">
<rect width="1440" height="1063" fill="white"/>
</clipPath>
</defs>
</svg>
